<svg width="20" height="21" viewBox="0 0 20 21" fill="none" xmlns="http://www.w3.org/2000/svg">
<path d="M14.9987 2.10596H4.9987C4.07822 2.10596 3.33203 2.85215 3.33203 3.77262V17.106C3.33203 18.0264 4.07822 18.7726 4.9987 18.7726H14.9987C15.9192 18.7726 16.6654 18.0264 16.6654 17.106V3.77262C16.6654 2.85215 15.9192 2.10596 14.9987 2.10596Z" stroke="#0F172A" stroke-linecap="round" stroke-linejoin="round"/>
<path d="M7.5 18.7728V15.4395H12.5V18.7728" stroke="#0F172A" stroke-linecap="round" stroke-linejoin="round"/>
<path d="M6.66797 5.43945H6.6763" stroke="#0F172A" stroke-linecap="round" stroke-linejoin="round"/>
<path d="M13.332 5.43945H13.3404" stroke="#0F172A" stroke-linecap="round" stroke-linejoin="round"/>
<path d="M10 5.43945H10.0083" stroke="#0F172A" stroke-linecap="round" stroke-linejoin="round"/>
<path d="M10 8.77271H10.0083" stroke="#0F172A" stroke-linecap="round" stroke-linejoin="round"/>
<path d="M10 12.1062H10.0083" stroke="#0F172A" stroke-linecap="round" stroke-linejoin="round"/>
<path d="M13.332 8.77295H13.3404" stroke="#0F172A" stroke-linecap="round" stroke-linejoin="round"/>
<path d="M13.332 12.106H13.3404" stroke="#0F172A" stroke-linecap="round" stroke-linejoin="round"/>
<path d="M6.66797 8.77295H6.6763" stroke="#0F172A" stroke-linecap="round" stroke-linejoin="round"/>
<path d="M6.66797 12.106H6.6763" stroke="#0F172A" stroke-linecap="round" stroke-linejoin="round"/>
</svg>
