<svg width="20" height="21" viewBox="0 0 20 21" fill="none" xmlns="http://www.w3.org/2000/svg">
<path d="M10.0013 18.7729C14.6037 18.7729 18.3346 15.0419 18.3346 10.4395C18.3346 5.83716 14.6037 2.1062 10.0013 2.1062C5.39893 2.1062 1.66797 5.83716 1.66797 10.4395C1.66797 15.0419 5.39893 18.7729 10.0013 18.7729Z" stroke="#0F172A" stroke-linecap="round" stroke-linejoin="round"/>
<path d="M7.57422 7.93944C7.77014 7.3825 8.15685 6.91286 8.66585 6.61372C9.17485 6.31457 9.7733 6.20522 10.3552 6.30503C10.9371 6.40484 11.4649 6.70738 11.8451 7.15905C12.2253 7.61072 12.4334 8.18237 12.4326 8.77277C12.4326 10.4394 9.93255 11.2728 9.93255 11.2728" stroke="#0F172A" stroke-linecap="round" stroke-linejoin="round"/>
<path d="M10 14.6062H10.0083" stroke="#0F172A" stroke-linecap="round" stroke-linejoin="round"/>
</svg>
