<svg width="20" height="21" viewBox="0 0 20 21" fill="none" xmlns="http://www.w3.org/2000/svg">
<path d="M17.5 6.68962V5.43962C17.5 4.99759 17.3244 4.57367 17.0118 4.2611C16.6993 3.94854 16.2754 3.77295 15.8333 3.77295H4.16667C3.72464 3.77295 3.30072 3.94854 2.98816 4.2611C2.67559 4.57367 2.5 4.99759 2.5 5.43962V17.1063C2.5 17.5483 2.67559 17.9722 2.98816 18.2848C3.30072 18.5974 3.72464 18.7729 4.16667 18.7729H7.08333" stroke="#0F172A" stroke-linecap="round" stroke-linejoin="round"/>
<path d="M13.332 2.10596V5.43929" stroke="#0F172A" stroke-linecap="round" stroke-linejoin="round"/>
<path d="M6.66797 2.10596V5.43929" stroke="#0F172A" stroke-linecap="round" stroke-linejoin="round"/>
<path d="M2.5 8.77295H6.66667" stroke="#0F172A" stroke-linecap="round" stroke-linejoin="round"/>
<path d="M14.582 15.0226L13.332 13.981V12.106" stroke="#0F172A" stroke-linecap="round" stroke-linejoin="round"/>
<path d="M18.332 13.7729C18.332 15.099 17.8052 16.3708 16.8676 17.3085C15.9299 18.2462 14.6581 18.7729 13.332 18.7729C12.0059 18.7729 10.7342 18.2462 9.7965 17.3085C8.85882 16.3708 8.33203 15.099 8.33203 13.7729C8.33203 12.4469 8.85882 11.1751 9.7965 10.2374C10.7342 9.29973 12.0059 8.77295 13.332 8.77295C14.6581 8.77295 15.9299 9.29973 16.8676 10.2374C17.8052 11.1751 18.332 12.4469 18.332 13.7729Z" stroke="#0F172A" stroke-linecap="round" stroke-linejoin="round"/>
</svg>
