<svg width="20" height="21" viewBox="0 0 20 21" fill="none" xmlns="http://www.w3.org/2000/svg">
<path d="M13.3346 17.9395V16.2728C13.3346 15.3887 12.9834 14.5409 12.3583 13.9158C11.7332 13.2906 10.8854 12.9395 10.0013 12.9395H5.0013C4.11725 12.9395 3.2694 13.2906 2.64428 13.9158C2.01916 14.5409 1.66797 15.3887 1.66797 16.2728V17.9395" stroke="#0F172A" stroke-linecap="round" stroke-linejoin="round"/>
<path d="M7.5013 9.60612C9.34225 9.60612 10.8346 8.11374 10.8346 6.27279C10.8346 4.43184 9.34225 2.93945 7.5013 2.93945C5.66035 2.93945 4.16797 4.43184 4.16797 6.27279C4.16797 8.11374 5.66035 9.60612 7.5013 9.60612Z" stroke="#0F172A" stroke-linecap="round" stroke-linejoin="round"/>
<path d="M15.8346 11.2728C16.7551 11.2728 17.5013 10.5266 17.5013 9.60612C17.5013 8.68565 16.7551 7.93945 15.8346 7.93945C14.9142 7.93945 14.168 8.68565 14.168 9.60612C14.168 10.5266 14.9142 11.2728 15.8346 11.2728Z" stroke="#0F172A" stroke-linecap="round" stroke-linejoin="round"/>
<path d="M15.832 7.10596V7.93929" stroke="#0F172A" stroke-linecap="round" stroke-linejoin="round"/>
<path d="M15.832 11.2729V12.1063" stroke="#0F172A" stroke-linecap="round" stroke-linejoin="round"/>
<path d="M17.9984 8.35596L17.2734 8.77262" stroke="#0F172A" stroke-linecap="round" stroke-linejoin="round"/>
<path d="M14.393 10.4395L13.668 10.8561" stroke="#0F172A" stroke-linecap="round" stroke-linejoin="round"/>
<path d="M17.9984 10.8561L17.2734 10.4395" stroke="#0F172A" stroke-linecap="round" stroke-linejoin="round"/>
<path d="M14.393 8.77262L13.668 8.35596" stroke="#0F172A" stroke-linecap="round" stroke-linejoin="round"/>
</svg>
